{
    "asset" : {
        "generator" : "Khronos glTF Blender I/O v1.5.17",
        "version" : "2.0"
    },
    "extensionsUsed" : [
        "KHR_materials_transmission"
    ],
    "scene" : 0,
    "scenes" : [
        {
            "name" : "Scene",
            "nodes" : [
                5,
                6,
                7,
                8,
                9
            ]
        }
    ],
    "nodes" : [
        {
            "mesh" : 0,
            "name" : "Icing",
            "rotation" : [
                0,
                0.7017219662666321,
                0,
                0.7124509215354919
            ],
            "scale" : [
                0.6685889363288879,
                1,
                0.668589174747467
            ],
            "translation" : [
                0.045044783502817154,
                -0.010567160323262215,
                0.14053106307983398
            ]
        },
        {
            "children" : [
                0
            ],
            "mesh" : 1,
            "name" : "Cup.004",
            "rotation" : [
                0.3873397409915924,
                -0.5915808081626892,
                -0.591580867767334,
                0.3873398005962372
            ],
            "scale" : [
                1.495686650276184,
                1,
                1.4956868886947632
            ],
            "translation" : [
                0.10600932687520981,
                -0.009497583843767643,
                0.03845841810107231
            ]
        },
        {
            "name" : "GLTF_SceneRootNode",
            "rotation" : [
                0.7071068286895752,
                0,
                0,
                0.7071068286895752
            ]
        },
        {
            "children" : [
                2
            ],
            "name" : "root"
        },
        {
            "children" : [
                3
            ],
            "name" : "RootNode (model correction matrix)",
            "scale" : [
                0.31409332156181335,
                0.31409332156181335,
                0.31409332156181335
            ]
        },
        {
            "children" : [
                1,
                4
            ],
            "name" : "RootNode (gltf orientation matrix)",
            "rotation" : [
                -0.7071068286895752,
                0,
                0,
                0.7071068286895752
            ]
        },
        {
            "name" : "Light.001",
            "rotation" : [
                0.16907575726509094,
                0.7558803558349609,
                -0.27217137813568115,
                0.570947527885437
            ],
            "translation" : [
                5.401749610900879,
                6.478123188018799,
                -0.5092921853065491
            ]
        },
        {
            "name" : "Camera.001",
            "rotation" : [
                0.483536034822464,
                0.33687159419059753,
                -0.20870360732078552,
                0.7804827094078064
            ],
            "translation" : [
                8.684396743774414,
                5.5325703620910645,
                7.421952247619629
            ]
        },
        {
            "name" : "Light",
            "rotation" : [
                0.16907575726509094,
                0.7558803558349609,
                -0.27217137813568115,
                0.570947527885437
            ],
            "translation" : [
                2.1625356674194336,
                3.993156909942627,
                1.4778741598129272
            ]
        },
        {
            "name" : "Camera",
            "rotation" : [
                0.483536034822464,
                0.33687159419059753,
                -0.20870360732078552,
                0.7804827094078064
            ],
            "translation" : [
                7.358891487121582,
                4.958309173583984,
                6.925790786743164
            ]
        }
    ],
    "materials" : [
        {
            "doubleSided" : true,
            "name" : "Material.002",
            "pbrMetallicRoughness" : {
                "baseColorFactor" : [
                    0.12477187067270279,
                    0.02315334416925907,
                    0.00402472261339426,
                    1
                ],
                "metallicFactor" : 0,
                "roughnessFactor" : 0.3719008266925812
            }
        },
        {
            "doubleSided" : true,
            "name" : "Material.003",
            "pbrMetallicRoughness" : {
                "metallicFactor" : 0,
                "roughnessFactor" : 0.5
            }
        },
        {
            "doubleSided" : true,
            "extensions" : {
                "KHR_materials_transmission" : {
                    "transmissionFactor" : 1
                }
            },
            "name" : "GlassPink",
            "pbrMetallicRoughness" : {
                "baseColorFactor" : [
                    1,
                    0.6705049872398376,
                    0.6431967616081238,
                    1
                ],
                "metallicFactor" : 0,
                "roughnessFactor" : 0
            }
        },
        {
            "doubleSided" : true,
            "extensions" : {
                "KHR_materials_transmission" : {
                    "transmissionFactor" : 0.3719007968902588
                }
            },
            "name" : "Material.005",
            "pbrMetallicRoughness" : {
                "baseColorFactor" : [
                    0.5203529000282288,
                    0.7876460552215576,
                    1,
                    1
                ],
                "metallicFactor" : 0,
                "roughnessFactor" : 0.5
            }
        },
        {
            "doubleSided" : true,
            "extensions" : {
                "KHR_materials_transmission" : {
                    "transmissionFactor" : 1
                }
            },
            "name" : "glassblack",
            "pbrMetallicRoughness" : {
                "baseColorFactor" : [
                    0,
                    0,
                    0,
                    1
                ],
                "metallicFactor" : 0,
                "roughnessFactor" : 0
            }
        }
    ],
    "meshes" : [
        {
            "name" : "Torus.001",
            "primitives" : [
                {
                    "attributes" : {
                        "POSITION" : 0,
                        "NORMAL" : 1,
                        "TEXCOORD_0" : 2
                    },
                    "indices" : 3,
                    "material" : 0
                },
                {
                    "attributes" : {
                        "POSITION" : 4,
                        "NORMAL" : 5,
                        "TEXCOORD_0" : 6
                    },
                    "indices" : 7,
                    "material" : 1
                }
            ]
        },
        {
            "name" : "plate.022",
            "primitives" : [
                {
                    "attributes" : {
                        "POSITION" : 8,
                        "NORMAL" : 9,
                        "TEXCOORD_0" : 10
                    },
                    "indices" : 11,
                    "material" : 2
                },
                {
                    "attributes" : {
                        "POSITION" : 12,
                        "NORMAL" : 13,
                        "TEXCOORD_0" : 14
                    },
                    "indices" : 15,
                    "material" : 3
                },
                {
                    "attributes" : {
                        "POSITION" : 16,
                        "NORMAL" : 17,
                        "TEXCOORD_0" : 18
                    },
                    "indices" : 19,
                    "material" : 4
                }
            ]
        }
    ],
    "accessors" : [
        {
            "bufferView" : 0,
            "componentType" : 5126,
            "count" : 17365,
            "max" : [
                0.07722006738185883,
                0.027932845056056976,
                0.07579822838306427
            ],
            "min" : [
                -0.06867776811122894,
                -0.011376154609024525,
                -0.07014210522174835
            ],
            "type" : "VEC3"
        },
        {
            "bufferView" : 1,
            "componentType" : 5126,
            "count" : 17365,
            "type" : "VEC3"
        },
        {
            "bufferView" : 2,
            "componentType" : 5126,
            "count" : 17365,
            "type" : "VEC2"
        },
        {
            "bufferView" : 3,
            "componentType" : 5123,
            "count" : 100008,
            "type" : "SCALAR"
        },
        {
            "bufferView" : 4,
            "componentType" : 5126,
            "count" : 5537,
            "max" : [
                0.07474429160356522,
                0.02026442624628544,
                0.07469300925731659
            ],
            "min" : [
                -0.06856350600719452,
                -0.03177548572421074,
                -0.06790836900472641
            ],
            "type" : "VEC3"
        },
        {
            "bufferView" : 5,
            "componentType" : 5126,
            "count" : 5537,
            "type" : "VEC3"
        },
        {
            "bufferView" : 6,
            "componentType" : 5126,
            "count" : 5537,
            "type" : "VEC2"
        },
        {
            "bufferView" : 7,
            "componentType" : 5123,
            "count" : 32256,
            "type" : "SCALAR"
        },
        {
            "bufferView" : 8,
            "componentType" : 5126,
            "count" : 1252,
            "max" : [
                0.06286340206861496,
                0.048245735466480255,
                0.05996019393205643
            ],
            "min" : [
                -0.056457068771123886,
                -0.044017672538757324,
                -0.049818020313978195
            ],
            "type" : "VEC3"
        },
        {
            "bufferView" : 9,
            "componentType" : 5126,
            "count" : 1252,
            "type" : "VEC3"
        },
        {
            "bufferView" : 10,
            "componentType" : 5126,
            "count" : 1252,
            "type" : "VEC2"
        },
        {
            "bufferView" : 11,
            "componentType" : 5123,
            "count" : 6702,
            "type" : "SCALAR"
        },
        {
            "bufferView" : 12,
            "componentType" : 5126,
            "count" : 3632,
            "max" : [
                0.011572467163205147,
                0.040553636848926544,
                0.04527663066983223
            ],
            "min" : [
                -0.03245603293180466,
                0.018330654129385948,
                0.029921378940343857
            ],
            "type" : "VEC3"
        },
        {
            "bufferView" : 13,
            "componentType" : 5126,
            "count" : 3632,
            "type" : "VEC3"
        },
        {
            "bufferView" : 14,
            "componentType" : 5126,
            "count" : 3632,
            "type" : "VEC2"
        },
        {
            "bufferView" : 15,
            "componentType" : 5123,
            "count" : 4368,
            "type" : "SCALAR"
        },
        {
            "bufferView" : 16,
            "componentType" : 5126,
            "count" : 363,
            "max" : [
                0.03577086329460144,
                0.02226705476641655,
                0.04126979038119316
            ],
            "min" : [
                -0.037466809153556824,
                -0.04077725112438202,
                -0.03196787089109421
            ],
            "type" : "VEC3"
        },
        {
            "bufferView" : 17,
            "componentType" : 5126,
            "count" : 363,
            "type" : "VEC3"
        },
        {
            "bufferView" : 18,
            "componentType" : 5126,
            "count" : 363,
            "type" : "VEC2"
        },
        {
            "bufferView" : 19,
            "componentType" : 5123,
            "count" : 1722,
            "type" : "SCALAR"
        }
    ],
    "bufferViews" : [
        {
            "buffer" : 0,
            "byteLength" : 208380,
            "byteOffset" : 0
        },
        {
            "buffer" : 0,
            "byteLength" : 208380,
            "byteOffset" : 208380
        },
        {
            "buffer" : 0,
            "byteLength" : 138920,
            "byteOffset" : 416760
        },
        {
            "buffer" : 0,
            "byteLength" : 200016,
            "byteOffset" : 555680
        },
        {
            "buffer" : 0,
            "byteLength" : 66444,
            "byteOffset" : 755696
        },
        {
            "buffer" : 0,
            "byteLength" : 66444,
            "byteOffset" : 822140
        },
        {
            "buffer" : 0,
            "byteLength" : 44296,
            "byteOffset" : 888584
        },
        {
            "buffer" : 0,
            "byteLength" : 64512,
            "byteOffset" : 932880
        },
        {
            "buffer" : 0,
            "byteLength" : 15024,
            "byteOffset" : 997392
        },
        {
            "buffer" : 0,
            "byteLength" : 15024,
            "byteOffset" : 1012416
        },
        {
            "buffer" : 0,
            "byteLength" : 10016,
            "byteOffset" : 1027440
        },
        {
            "buffer" : 0,
            "byteLength" : 13404,
            "byteOffset" : 1037456
        },
        {
            "buffer" : 0,
            "byteLength" : 43584,
            "byteOffset" : 1050860
        },
        {
            "buffer" : 0,
            "byteLength" : 43584,
            "byteOffset" : 1094444
        },
        {
            "buffer" : 0,
            "byteLength" : 29056,
            "byteOffset" : 1138028
        },
        {
            "buffer" : 0,
            "byteLength" : 8736,
            "byteOffset" : 1167084
        },
        {
            "buffer" : 0,
            "byteLength" : 4356,
            "byteOffset" : 1175820
        },
        {
            "buffer" : 0,
            "byteLength" : 4356,
            "byteOffset" : 1180176
        },
        {
            "buffer" : 0,
            "byteLength" : 2904,
            "byteOffset" : 1184532
        },
        {
            "buffer" : 0,
            "byteLength" : 3444,
            "byteOffset" : 1187436
        }
    ],
    "buffers" : [
        {
            "byteLength" : 1190880,
            "uri" : "data:application/octet-stream;base64,"
        }
    ]
}
